HIERARCHY
ROOT Hips
{
  OFFSET -35.2597 29.1586 114.425
  CHANNELS 6 Xposition Yposition Zposition Zrotation Xrotation Yrotation
  JOINT LeftUpLeg
  {
    OFFSET 8.64259 1.95398 -2.38835
    CHANNELS 3 Zrotation Xrotation Yrotation
    JOINT LeftLeg
    {
      OFFSET 43.7702 0 0
      CHANNELS 3 Zrotation Xrotation Yrotation
      JOINT LeftFoot
      {
        OFFSET 40.6238 0 0
        CHANNELS 3 Zrotation Xrotation Yrotation
        JOINT LeftToeBase
        {
          OFFSET 12.7242 0 0
          CHANNELS 3 Zrotation Xrotation Yrotation
          End Site
          {
            OFFSET 0 0 0
          }
        }
      }
    }
  }
  JOINT RightUpLeg
  {
    OFFSET -8.2249 1.95398 -2.59336
    CHANNELS 3 Zrotation Xrotation Yrotation
    JOINT RightLeg
    {
      OFFSET 43.5653 0 0
      CHANNELS 3 Zrotation Xrotation Yrotation
      JOINT RightFoot
      {
        OFFSET 40.6238 0 0
        CHANNELS 3 Zrotation Xrotation Yrotation
        JOINT RightToeBase
        {
          OFFSET 12.7242 0 0
          CHANNELS 3 Zrotation Xrotation Yrotation
          End Site
          {
            OFFSET 0 0 0
          }
        }
      }
    }
  }
  JOINT Spine
  {
    OFFSET 0.165834 0.87714 6.61349
    CHANNELS 3 Zrotation Xrotation Yrotation
    JOINT Spine1
    {
      OFFSET 7.38963 1.71661e-005 0
      CHANNELS 3 Zrotation Xrotation Yrotation
      JOINT Spine2
      {
        OFFSET 11.9445 1.14441e-005 0
        CHANNELS 3 Zrotation Xrotation Yrotation
        JOINT Spine3
        {
          OFFSET 14.7254 4.19617e-005 0
          CHANNELS 3 Zrotation Xrotation Yrotation
          JOINT Spine4
          {
            OFFSET 10.9679 0 0
            CHANNELS 3 Zrotation Xrotation Yrotation
            JOINT RightShoulder
            {
              OFFSET 2.46616 -1.6653 3.69651
              CHANNELS 3 Zrotation Xrotation Yrotation
              JOINT RightArm
              {
                OFFSET 13.0012 0 0
                CHANNELS 3 Zrotation Xrotation Yrotation
                JOINT RightForeArm
                {
                  OFFSET 28.7848 1.62311e-005 0
                  CHANNELS 3 Zrotation Xrotation Yrotation
                  JOINT RightHand
                  {
                    OFFSET 26.5688 1.62095e-005 0
                    CHANNELS 3 Zrotation Xrotation Yrotation
                    End Site
                    {
                      OFFSET 0 0 0
                    }
                  }
                }
              }
            }
            JOINT LeftShoulder
            {
              OFFSET 2.38034 -1.29275 -3.7523
              CHANNELS 3 Zrotation Xrotation Yrotation
              JOINT LeftArm
              {
                OFFSET 16.3182 6.07031e-005 0
                CHANNELS 3 Zrotation Xrotation Yrotation
                JOINT LeftForeArm
                {
                  OFFSET 27.0901 0 0
                  CHANNELS 3 Zrotation Xrotation Yrotation
                  JOINT LeftHand
                  {
                    OFFSET 24.5451 1.51738e-005 0
                    CHANNELS 3 Zrotation Xrotation Yrotation
                    End Site
                    {
                      OFFSET 0 0 0
                    }
                  }
                }
              }
            }
            JOINT Neck
            {
              OFFSET 5.0226 -0.0266342 0
              CHANNELS 3 Zrotation Xrotation Yrotation
              JOINT Head
              {
                OFFSET 6.69364 2.86102e-005 0
                CHANNELS 3 Zrotation Xrotation Yrotation
                End Site
                {
                  OFFSET 0 0 0
                }
              }
            }
          }
        }
      }
    }
  }
}
MOTION
Frames:	6
Frame Time:	0.0416667
-300.017 88.7748 -280.307 -109.197 60.0751 -75.0529 -168.547 2.8045 98.1748 120.74 -70.2719 -163.211 -11.245 -23.6853 -61.95 -144.138 -17.1914 -56.5984 -166.8 29.4444 93.2394 -61.3084 -24.9521 -9.63051 67.6133 -9.52408 -3.54554 24.9676 -0.00476845 4.92637 3.41988 12.82 -91.3603 1.27828 6.30875 -2.44843 -10.3802 6.19492 -2.72454 -33.0373 6.75172 -0.431177 -13.0247 6.75173 -0.431175 99.1923 9.27406 -99.5747 32.6177 0.270597 37.9208 -17.0122 0.188327 -94.6332 -50.0728 10.7835 -28.3115 -93.222 -37.1552 70.0009 -21.6044 0.992447 -62.6275 41.4929 27.5934 -62.5566 33.0346 -9.68624 -33.8381 21.6795 -0.814002 19.5814 30.6915 -7.82475 -2.44876 
-295.789 89.7954 -276.038 -108.642 57.9608 -76.5596 -166.487 -1.79563 96.6051 -78.9499 -70.7274 -6.35056 32.1479 -6.00158 -102.214 -27.8391 13.6657 -32.3492 -168.084 29.3705 91.7027 -53.7173 -26.1808 -9.05573 62.0039 -5.54769 -1.69034 22.985 0.408119 5.89787 2.26536 12.8775 -90.6562 1.13123 4.27229 -1.13249 -10.5334 4.21832 -1.31972 -33.1243 4.4147 0.206286 -13.1116 4.41469 0.206276 99.1172 5.09155 -97.0684 35.6171 -12.9438 41.4377 -13.835 1.36198 -101.525 -52.2037 12.6768 -31.0199 -88.87 -32.9485 76.386 -19.6265 -9.05014 -61.4708 43.3482 16.9792 -73.0352 36.4551 -12.3046 -38.1534 27.7287 2.83081 16.4651 27.5962 -4.85313 -5.29361 
-291.14 90.2824 -270.358 -110.327 53.9808 -75.6572 -166.539 -2.64102 91.2912 -67.2525 -1.95638 -0.822655 109.131 12.4983 -11.7444 13.7857 -11.3564 1.21874 -171.041 28.4744 90.9071 -45.5939 -28.5274 -8.92463 54.4948 1.09789 0.0170239 19.1409 1.25476 7.46537 0.827746 12.9129 -89.8199 1.04307 1.7199 0.41027 -10.6268 1.73627 0.334141 -33.1688 1.51711 0.908343 -13.1562 1.5171 0.908335 98.8491 -2.19325 -95.271 34.0434 -22.4493 44.1327 -14.0607 2.92099 -109.564 -54.0054 15.3568 -35.1475 -83.0913 -22.4922 85.3996 -20.4378 -16.1828 -51.4251 43.2594 6.68837 -84.9071 35.8176 -12.8004 -40.0165 36.925 5.67444 6.42865 17.3687 1.3728 -5.79616 
-286.463 92.8061 -264.382 -111.768 50.0477 -72.6319 -168.736 -3.8106 91.6095 -62.0115 17.3285 -0.0190428 79.5135 18.0313 14.9437 18.73 -4.80064 -0.622232 -175.225 21.3781 91.1016 -27.6715 -37.1272 -7.49255 52.3231 3.66323 2.33837 15.012 3.09972 6.74977 0.204492 12.5601 -89.6095 1.75029 0.558683 0.77248 -9.92076 0.592118 0.747138 -32.4544 0.300711 0.904679 -12.4418 0.300694 0.904659 97.436 -14.6839 -94.9408 34.372 -21.1791 52.927 -12.1159 2.89591 -113.069 -49.0472 17.3453 -42.6507 -80.8076 -11.6286 88.7363 -20.4445 -15.5602 -37.5589 49.5429 -1.90335 -92.1057 29.81 -11.2248 -41.6879 39.6136 4.01031 -5.27473 6.49132 6.07922 -1.90376 
-281.015 94.9422 -258.273 -107.934 46.8883 -72.1984 -170.316 0.24397 94.4147 -55.1912 9.92362 1.24355 72.0121 8.47936 4.88508 24.1272 -2.57151 0.419639 -174.988 21.4787 92.4741 -30.2106 -33.8069 -8.23098 58.717 -0.0287488 -0.488909 7.56085 5.32578 8.10382 0.0751792 11.6154 -89.9785 3.64313 0.158797 0.042368 -8.02782 0.160478 0.0353413 -30.563 0.138713 0.0881401 -10.5504 0.138719 0.0881333 94.8593 -26.5408 -97.8805 32.6437 -6.91926 54.3819 -21.5604 5.17278 -108.992 -48.341 19.242 -47.0801 -81.3609 -10.5203 87.0255 -19.3616 -9.03439 -22.6668 50.9866 -5.73482 -96.003 21.7217 -9.67154 -47.2538 37.0982 2.48123 -12.1666 0.716348 7.93212 2.02965 
-274.456 93.3387 -250.918 -106.896 45.4515 -72.6248 -171.282 4.60258 93.9675 -53.7996 13.2361 1.42214 74.9246 12.1338 7.35508 38.6859 0.986423 9.67519 -176.956 25.3411 91.7609 -51.2806 -18.0568 -6.3119 65.6157 -3.61246 -1.86414 15.0135 2.67516 7.70258 -0.162988 10.9837 -89.6628 4.90642 -0.187326 0.667575 -6.76469 -0.157753 0.675161 -29.2988 -0.37929 0.580418 -9.28616 -0.379286 0.580419 86.2354 -42.0568 -109.197 24.281 19.7165 47.5059 -33.3876 5.91499 -103.244 -39.2582 19.4938 -57.3334 -82.4267 -13.101 84.7407 -20.429 -1.78708 -3.3449 48.3964 -5.88799 -96.7562 16.2855 -7.77379 -48.3644 35.7411 0.743768 -20.7895 -2.73005 9.99869 6.02757 
